<mxfile host="app.diagrams.net" modified="2024-04-01T02:09:51.625Z" agent="Mozilla/5.0 (X11; Linux x86_64) AppleWebKit/537.36 (KHTML, like Gecko) Chrome/117.0.0.0 Safari/537.36" etag="GGdC7Upgs2XQLL6TKkfC" version="24.2.1" type="github">
  <diagram id="C5RBs43oDa-KdzZeNtuy" name="uptool_topology">
    <mxGraphModel dx="1160" dy="692" grid="1" gridSize="10" guides="1" tooltips="1" connect="1" arrows="1" fold="1" page="1" pageScale="1" pageWidth="827" pageHeight="1169" math="0" shadow="0">
      <root>
        <mxCell id="WIyWlLk6GJQsqaUBKTNV-0" />
        <mxCell id="WIyWlLk6GJQsqaUBKTNV-1" parent="WIyWlLk6GJQsqaUBKTNV-0" />
        <mxCell id="15JTRB6i2O9myzKCoJsX-19" value="Yes" style="edgeStyle=orthogonalEdgeStyle;rounded=0;orthogonalLoop=1;jettySize=auto;html=1;exitX=0.5;exitY=1;exitDx=0;exitDy=0;entryX=0.5;entryY=0;entryDx=0;entryDy=0;" parent="WIyWlLk6GJQsqaUBKTNV-1" edge="1">
          <mxGeometry x="-0.2174" y="-10" relative="1" as="geometry">
            <mxPoint x="849.97" y="270" as="targetPoint" />
            <Array as="points">
              <mxPoint x="850" y="260" />
            </Array>
            <mxPoint as="offset" />
          </mxGeometry>
        </mxCell>
        <mxCell id="15JTRB6i2O9myzKCoJsX-34" style="edgeStyle=orthogonalEdgeStyle;rounded=0;orthogonalLoop=1;jettySize=auto;html=1;exitX=0.5;exitY=1;exitDx=0;exitDy=0;entryX=0.5;entryY=0;entryDx=0;entryDy=0;" parent="WIyWlLk6GJQsqaUBKTNV-1" edge="1">
          <mxGeometry relative="1" as="geometry">
            <mxPoint x="850" y="171" as="sourcePoint" />
          </mxGeometry>
        </mxCell>
        <mxCell id="DnXZNnPJ3mrhwlt7MRLt-16" style="edgeStyle=orthogonalEdgeStyle;rounded=0;orthogonalLoop=1;jettySize=auto;html=1;exitX=0.5;exitY=0;exitDx=0;exitDy=0;exitPerimeter=0;entryX=0.5;entryY=1;entryDx=0;entryDy=0;endArrow=none;endFill=0;" edge="1" parent="WIyWlLk6GJQsqaUBKTNV-1" source="DnXZNnPJ3mrhwlt7MRLt-2" target="DnXZNnPJ3mrhwlt7MRLt-9">
          <mxGeometry relative="1" as="geometry" />
        </mxCell>
        <mxCell id="DnXZNnPJ3mrhwlt7MRLt-2" value="PC" style="shape=mxgraph.cisco.computers_and_peripherals.terminal;sketch=0;html=1;pointerEvents=1;dashed=0;fillColor=#036897;strokeColor=#ffffff;strokeWidth=2;verticalLabelPosition=bottom;verticalAlign=top;align=center;outlineConnect=0;" vertex="1" parent="WIyWlLk6GJQsqaUBKTNV-1">
          <mxGeometry x="235" y="545" width="50" height="40" as="geometry" />
        </mxCell>
        <mxCell id="DnXZNnPJ3mrhwlt7MRLt-31" style="edgeStyle=orthogonalEdgeStyle;rounded=0;orthogonalLoop=1;jettySize=auto;html=1;exitX=0.5;exitY=0.98;exitDx=0;exitDy=0;exitPerimeter=0;endArrow=none;endFill=0;" edge="1" parent="WIyWlLk6GJQsqaUBKTNV-1" source="DnXZNnPJ3mrhwlt7MRLt-3" target="DnXZNnPJ3mrhwlt7MRLt-21">
          <mxGeometry relative="1" as="geometry" />
        </mxCell>
        <mxCell id="DnXZNnPJ3mrhwlt7MRLt-3" value="交换机" style="shape=mxgraph.cisco.switches.workgroup_switch;sketch=0;html=1;pointerEvents=1;dashed=0;fillColor=#036897;strokeColor=#ffffff;strokeWidth=2;verticalLabelPosition=bottom;verticalAlign=top;align=center;outlineConnect=0;" vertex="1" parent="WIyWlLk6GJQsqaUBKTNV-1">
          <mxGeometry x="690" y="469" width="70" height="26" as="geometry" />
        </mxCell>
        <mxCell id="DnXZNnPJ3mrhwlt7MRLt-8" value="" style="rounded=0;whiteSpace=wrap;html=1;" vertex="1" parent="WIyWlLk6GJQsqaUBKTNV-1">
          <mxGeometry x="160" y="439" width="140" height="80" as="geometry" />
        </mxCell>
        <mxCell id="DnXZNnPJ3mrhwlt7MRLt-9" value="LAN2" style="rounded=0;whiteSpace=wrap;html=1;" vertex="1" parent="WIyWlLk6GJQsqaUBKTNV-1">
          <mxGeometry x="240" y="489" width="40" height="30" as="geometry" />
        </mxCell>
        <mxCell id="DnXZNnPJ3mrhwlt7MRLt-18" style="edgeStyle=orthogonalEdgeStyle;rounded=0;orthogonalLoop=1;jettySize=auto;html=1;exitX=0.5;exitY=0;exitDx=0;exitDy=0;entryX=0.5;entryY=1;entryDx=0;entryDy=0;startArrow=none;startFill=0;endArrow=none;endFill=0;" edge="1" parent="WIyWlLk6GJQsqaUBKTNV-1" source="DnXZNnPJ3mrhwlt7MRLt-10" target="DnXZNnPJ3mrhwlt7MRLt-12">
          <mxGeometry relative="1" as="geometry" />
        </mxCell>
        <mxCell id="DnXZNnPJ3mrhwlt7MRLt-10" value="WAN" style="rounded=0;whiteSpace=wrap;html=1;" vertex="1" parent="WIyWlLk6GJQsqaUBKTNV-1">
          <mxGeometry x="240" y="439" width="40" height="30" as="geometry" />
        </mxCell>
        <mxCell id="DnXZNnPJ3mrhwlt7MRLt-11" value="" style="rounded=0;whiteSpace=wrap;html=1;" vertex="1" parent="WIyWlLk6GJQsqaUBKTNV-1">
          <mxGeometry x="160" y="339" width="140" height="50" as="geometry" />
        </mxCell>
        <mxCell id="DnXZNnPJ3mrhwlt7MRLt-12" value="LAN口" style="rounded=0;whiteSpace=wrap;html=1;" vertex="1" parent="WIyWlLk6GJQsqaUBKTNV-1">
          <mxGeometry x="240" y="359" width="40" height="30" as="geometry" />
        </mxCell>
        <mxCell id="DnXZNnPJ3mrhwlt7MRLt-14" value="&lt;b&gt;&lt;font style=&quot;font-size: 16px;&quot;&gt;A300&lt;/font&gt;&lt;/b&gt;" style="text;html=1;align=center;verticalAlign=middle;whiteSpace=wrap;rounded=0;" vertex="1" parent="WIyWlLk6GJQsqaUBKTNV-1">
          <mxGeometry x="90" y="459" width="60" height="30" as="geometry" />
        </mxCell>
        <mxCell id="DnXZNnPJ3mrhwlt7MRLt-15" value="&lt;span style=&quot;font-size: 16px;&quot;&gt;&lt;b&gt;上联网关&lt;/b&gt;&lt;/span&gt;" style="text;html=1;align=center;verticalAlign=middle;whiteSpace=wrap;rounded=0;" vertex="1" parent="WIyWlLk6GJQsqaUBKTNV-1">
          <mxGeometry x="80" y="349" width="70" height="30" as="geometry" />
        </mxCell>
        <mxCell id="DnXZNnPJ3mrhwlt7MRLt-21" value="PC" style="shape=mxgraph.cisco.computers_and_peripherals.terminal;sketch=0;html=1;pointerEvents=1;dashed=0;fillColor=#036897;strokeColor=#ffffff;strokeWidth=2;verticalLabelPosition=bottom;verticalAlign=top;align=center;outlineConnect=0;" vertex="1" parent="WIyWlLk6GJQsqaUBKTNV-1">
          <mxGeometry x="700" y="550" width="50" height="40" as="geometry" />
        </mxCell>
        <mxCell id="DnXZNnPJ3mrhwlt7MRLt-22" value="" style="rounded=0;whiteSpace=wrap;html=1;" vertex="1" parent="WIyWlLk6GJQsqaUBKTNV-1">
          <mxGeometry x="540" y="339" width="140" height="80" as="geometry" />
        </mxCell>
        <mxCell id="DnXZNnPJ3mrhwlt7MRLt-30" style="edgeStyle=orthogonalEdgeStyle;rounded=0;orthogonalLoop=1;jettySize=auto;html=1;exitX=0.5;exitY=1;exitDx=0;exitDy=0;endArrow=none;endFill=0;" edge="1" parent="WIyWlLk6GJQsqaUBKTNV-1" source="DnXZNnPJ3mrhwlt7MRLt-25" target="DnXZNnPJ3mrhwlt7MRLt-3">
          <mxGeometry relative="1" as="geometry" />
        </mxCell>
        <mxCell id="DnXZNnPJ3mrhwlt7MRLt-25" value="WAN" style="rounded=0;whiteSpace=wrap;html=1;" vertex="1" parent="WIyWlLk6GJQsqaUBKTNV-1">
          <mxGeometry x="615" y="389" width="40" height="30" as="geometry" />
        </mxCell>
        <mxCell id="DnXZNnPJ3mrhwlt7MRLt-28" value="&lt;b&gt;&lt;font style=&quot;font-size: 16px;&quot;&gt;A300&lt;/font&gt;&lt;/b&gt;" style="text;html=1;align=center;verticalAlign=middle;whiteSpace=wrap;rounded=0;" vertex="1" parent="WIyWlLk6GJQsqaUBKTNV-1">
          <mxGeometry x="470" y="359" width="60" height="30" as="geometry" />
        </mxCell>
        <mxCell id="DnXZNnPJ3mrhwlt7MRLt-34" value="" style="rounded=0;whiteSpace=wrap;html=1;" vertex="1" parent="WIyWlLk6GJQsqaUBKTNV-1">
          <mxGeometry x="770" y="339" width="140" height="80" as="geometry" />
        </mxCell>
        <mxCell id="DnXZNnPJ3mrhwlt7MRLt-38" style="edgeStyle=orthogonalEdgeStyle;rounded=0;orthogonalLoop=1;jettySize=auto;html=1;exitX=0.75;exitY=1;exitDx=0;exitDy=0;endArrow=none;endFill=0;" edge="1" parent="WIyWlLk6GJQsqaUBKTNV-1" source="DnXZNnPJ3mrhwlt7MRLt-35" target="DnXZNnPJ3mrhwlt7MRLt-3">
          <mxGeometry relative="1" as="geometry" />
        </mxCell>
        <mxCell id="DnXZNnPJ3mrhwlt7MRLt-35" value="WAN" style="rounded=0;whiteSpace=wrap;html=1;" vertex="1" parent="WIyWlLk6GJQsqaUBKTNV-1">
          <mxGeometry x="845" y="389" width="40" height="30" as="geometry" />
        </mxCell>
        <mxCell id="DnXZNnPJ3mrhwlt7MRLt-36" value="&lt;b&gt;&lt;font style=&quot;font-size: 16px;&quot;&gt;A300&lt;/font&gt;&lt;/b&gt;" style="text;html=1;align=center;verticalAlign=middle;whiteSpace=wrap;rounded=0;" vertex="1" parent="WIyWlLk6GJQsqaUBKTNV-1">
          <mxGeometry x="700" y="359" width="60" height="30" as="geometry" />
        </mxCell>
      </root>
    </mxGraphModel>
  </diagram>
</mxfile>
